{
	"asset":{
		"generator":"Khronos glTF Blender I/O v3.5.30",
		"version":"2.0"
	},
	"scene":0,
	"scenes":[
		{
			"name":"Scene",
			"nodes":[
				0,
				1,
				2,
				7
			]
		}
	],
	"nodes":[
		{
			"name":"Level Bounds (2x) (requires extended bounds patch)",
			"scale":[
				163.83999633789062,
				114.99999237060547,
				163.83999633789062
			],
			"translation":[
				0,
				5,
				0
			]
		},
		{
			"name":"Level Bounds (1x)",
			"scale":[
				81.91999816894531,
				115,
				81.91999816894531
			],
			"translation":[
				0,
				5,
				0
			]
		},
		{
			"name":"Level Bounds (4x) (requires extended bounds patch)",
			"scale":[
				327.67999267578125,
				114.99999237060547,
				327.67999267578125
			],
			"translation":[
				0,
				5,
				0
			]
		},
		{
			"mesh":0,
			"name":"Cube",
			"scale":[
				5.064348220825195,
				1,
				1
			]
		},
		{
			"name":"Hardcoded Start Position",
			"scale":[
				0.36999964714050293,
				0.7999992370605469,
				0.36999964714050293
			],
			"translation":[
				0,
				2,
				0
			]
		},
		{
			"name":"Warp (Mario Start)",
			"scale":[
				0.36999964714050293,
				0.7999992370605469,
				0.36999964714050293
			],
			"translation":[
				0,
				2,
				0
			]
		},
		{
			"children":[
				3,
				4,
				5
			],
			"name":"Area 1"
		},
		{
			"children":[
				6
			],
			"name":"myLevel"
		}
	],
	"materials":[
		{
			"doubleSided":true,
			"name":"Material.001",
			"pbrMetallicRoughness":{
				"baseColorFactor":[
					0.800000011920929,
					0.800000011920929,
					0.800000011920929,
					1
				],
				"metallicFactor":0,
				"roughnessFactor":0.5
			}
		}
	],
	"meshes":[
		{
			"name":"Cube",
			"primitives":[
				{
					"attributes":{
						"COLOR_0":0,
						"POSITION":1,
						"TEXCOORD_0":2,
						"NORMAL":3
					},
					"indices":4,
					"material":0
				}
			]
		}
	],
	"accessors":[
		{
			"bufferView":0,
			"componentType":5126,
			"count":24,
			"type":"VEC4"
		},
		{
			"bufferView":1,
			"componentType":5126,
			"count":24,
			"max":[
				1,
				1,
				1
			],
			"min":[
				-1,
				-1,
				-1
			],
			"type":"VEC3"
		},
		{
			"bufferView":2,
			"componentType":5126,
			"count":24,
			"type":"VEC2"
		},
		{
			"bufferView":3,
			"componentType":5126,
			"count":24,
			"type":"VEC3"
		},
		{
			"bufferView":4,
			"componentType":5123,
			"count":36,
			"type":"SCALAR"
		}
	],
	"bufferViews":[
		{
			"buffer":0,
			"byteLength":384,
			"byteOffset":0,
			"target":34962
		},
		{
			"buffer":0,
			"byteLength":288,
			"byteOffset":384,
			"target":34962
		},
		{
			"buffer":0,
			"byteLength":192,
			"byteOffset":672,
			"target":34962
		},
		{
			"buffer":0,
			"byteLength":288,
			"byteOffset":864,
			"target":34962
		},
		{
			"buffer":0,
			"byteLength":72,
			"byteOffset":1152,
			"target":34963
		}
	],
	"buffers":[
		{
			"byteLength":1224,
			"uri":"cube.bin"
		}
	]
}
