{
	"asset":{
		"generator":"Khronos glTF Blender I/O v3.6.6",
		"version":"2.0"
	},
	"scene":1,
	"scenes":[
		{
			"name":"Scene",
			"nodes":[
				0
			]
		},
		{
			"name":"Scene",
			"nodes":[
				1
			]
		}
	],
	"nodes":[
		{
			"mesh":0,
			"name":"Text",
			"rotation":[
				0.5,
				-0.5,
				-0.5,
				0.4999999701976776
			],
			"translation":[
				0,
				-0.02180624008178711,
				2.0264968872070312
			]
		},
		{
			"mesh":1,
			"name":"Plane.001"
		}
	],
	"materials":[
		{
			"doubleSided":true,
			"name":"title_texture",
			"pbrMetallicRoughness":{
				"baseColorFactor":[
					0.800000011920929,
					0.800000011920929,
					0.800000011920929,
					1
				],
				"metallicFactor":0,
				"roughnessFactor":0.5
			}
		},
		{
			"alphaMode":"BLEND",
			"name":"beefwashere",
			"pbrMetallicRoughness":{}
		}
	],
	"meshes":[
		{
			"name":"Text",
			"primitives":[
				{
					"attributes":{
						"POSITION":0,
						"TEXCOORD_0":1,
						"NORMAL":2
					},
					"indices":3,
					"material":0
				}
			]
		},
		{
			"name":"Plane.001",
			"primitives":[
				{
					"attributes":{
						"POSITION":4,
						"TEXCOORD_0":5,
						"NORMAL":6
					},
					"indices":7,
					"material":1
				}
			]
		}
	],
	"accessors":[
		{
			"bufferView":0,
			"componentType":5126,
			"count":916,
			"max":[
				3.3367936611175537,
				1.7238456010818481,
				0
			],
			"min":[
				-2.9031896591186523,
				-2.0000200271606445,
				0
			],
			"type":"VEC3"
		},
		{
			"bufferView":1,
			"componentType":5126,
			"count":916,
			"type":"VEC2"
		},
		{
			"bufferView":2,
			"componentType":5126,
			"count":916,
			"type":"VEC3"
		},
		{
			"bufferView":3,
			"componentType":5123,
			"count":2526,
			"type":"SCALAR"
		},
		{
			"bufferView":4,
			"componentType":5126,
			"count":48,
			"max":[
				1.7586480379104614,
				1,
				3.7669906616210938
			],
			"min":[
				-15.610261917114258,
				-3.7215540409088135,
				0
			],
			"type":"VEC3"
		},
		{
			"bufferView":5,
			"componentType":5126,
			"count":48,
			"type":"VEC2"
		},
		{
			"bufferView":6,
			"componentType":5126,
			"count":48,
			"type":"VEC3"
		},
		{
			"bufferView":7,
			"componentType":5123,
			"count":96,
			"type":"SCALAR"
		}
	],
	"bufferViews":[
		{
			"buffer":0,
			"byteLength":10992,
			"byteOffset":0,
			"target":34962
		},
		{
			"buffer":0,
			"byteLength":7328,
			"byteOffset":10992,
			"target":34962
		},
		{
			"buffer":0,
			"byteLength":10992,
			"byteOffset":18320,
			"target":34962
		},
		{
			"buffer":0,
			"byteLength":5052,
			"byteOffset":29312,
			"target":34963
		},
		{
			"buffer":0,
			"byteLength":576,
			"byteOffset":34364,
			"target":34962
		},
		{
			"buffer":0,
			"byteLength":384,
			"byteOffset":34940,
			"target":34962
		},
		{
			"buffer":0,
			"byteLength":576,
			"byteOffset":35324,
			"target":34962
		},
		{
			"buffer":0,
			"byteLength":192,
			"byteOffset":35900,
			"target":34963
		}
	],
	"buffers":[
		{
			"byteLength":36092,
			"uri":"title.bin"
		}
	]
}
